<svg width="89" height="94" viewBox="0 0 89 94" fill="none" xmlns="http://www.w3.org/2000/svg">
<path d="M35.5 92.5L44.5 84L54 93L59 87.5L50.5 78L59 69L53.5 63.5L44 73L35.5 63.5L30 69L39.5 78L30 87.5L35.5 92.5Z" fill="black"/>
<path d="M57 45V52L60 58.5L63.5 61.5L68.5 64H77.5L82 61.5L86 58L88 52V45L85 39.5L81 35L75.5 33H71L65 35L59.5 39.5L57 45Z" fill="black"/>
<path d="M3 62H26L28 60V37.5L26 35H3.5L1 37.5V60L3 62Z" fill="black"/>
<path d="M42.5 2L28 25V28L30 29.5H59L61 28V25L47 2L45 1L42.5 2Z" fill="black"/>
<path d="M35.5 92.5L44.5 84L54 93L59 87.5L50.5 78L59 69L53.5 63.5L44 73L35.5 63.5L30 69L39.5 78L30 87.5L35.5 92.5Z" stroke="black"/>
<path d="M57 45V52L60 58.5L63.5 61.5L68.5 64H77.5L82 61.5L86 58L88 52V45L85 39.5L81 35L75.5 33H71L65 35L59.5 39.5L57 45Z" stroke="black"/>
<path d="M3 62H26L28 60V37.5L26 35H3.5L1 37.5V60L3 62Z" stroke="black"/>
<path d="M42.5 2L28 25V28L30 29.5H59L61 28V25L47 2L45 1L42.5 2Z" stroke="black"/>
</svg>
